<svg xmlns="http://www.w3.org/2000/svg" width="192" height="192" fill="#fff" viewBox="0 0 256 256"><rect width="256" height="256" fill="none"></rect><line x1="74.7" y1="88" x2="180.9" y2="88" fill="none" stroke="#fff" stroke-linecap="round" stroke-linejoin="round" stroke-width="8"></line><path d="M128,128,67.2,82.4A8.1,8.1,0,0,1,64,76V40a8,8,0,0,1,8-8H184a8,8,0,0,1,8,8V75.6a8.1,8.1,0,0,1-3.2,6.4L128,128h0" fill="none" stroke="#fff" stroke-linecap="round" stroke-linejoin="round" stroke-width="8"></path><path d="M128,128,67.2,173.6A8.1,8.1,0,0,0,64,180v36a8,8,0,0,0,8,8H184a8,8,0,0,0,8-8V180.4a8.1,8.1,0,0,0-3.2-6.4L128,128h0" fill="none" stroke="#fff" stroke-linecap="round" stroke-linejoin="round" stroke-width="8"></path><line x1="128" y1="168" x2="128" y2="128" fill="none" stroke="#fff" stroke-linecap="round" stroke-linejoin="round" stroke-width="8"></line></svg>